<?xml version="1.0" encoding="UTF-8"?>
<svg width="45px" height="47px" viewBox="0 0 45 47" version="1.1" xmlns="http://www.w3.org/2000/svg" xmlns:xlink="http://www.w3.org/1999/xlink">
    <!-- Generator: Sketch 52.3 (67297) - http://www.bohemiancoding.com/sketch -->
    <title>icons/develop</title>
    <desc>Created with Sketch.</desc>
    <g id="icons/develop" stroke="none" stroke-width="1" fill="none" fill-rule="evenodd">
        <g id="templates" transform="translate(1.000000, 1.000000)" fill="#CDCDCD" fill-rule="nonzero">
            <path d="M40.0329784,20.9009397 L41.3737296,21.8344609 C42.6756539,22.7409481 42.6756539,23.9227702 41.3737296,24.8292575 L24.3576259,36.6770128 C22.7281894,37.8115359 19.9415752,37.8115359 18.3121387,36.6770128 L1.296035,24.8292575 C-0.00588931702,23.9227702 -0.00588931702,22.7409481 1.296035,21.8344609 L2.63678628,20.9009397 L16.6708703,30.6724124 C19.2867117,32.4937371 23.383053,32.4937371 25.9988943,30.6724124 L40.0329784,20.9009397 Z M40.8167746,28.7170478 L41.3737296,29.1048373 C42.6756539,30.0113246 42.6756539,31.1931468 41.3737296,32.099634 L24.3576259,43.9473893 C22.7281894,45.0819125 19.9415752,45.0819125 18.3121387,43.9473893 L1.296035,32.099634 C-0.00588931702,31.1931468 -0.00588931702,30.0113246 1.296035,29.1048373 L1.85299004,28.7170478 L16.6708703,39.0342521 C19.2867117,40.8555767 23.383053,40.8555767 25.9988943,39.0342521 L40.8167746,28.7170478 Z M18.3121387,1.62486583 C19.9415752,0.490342639 22.7281894,0.490342639 24.3576259,1.62486583 L41.3737296,13.4726211 C42.6756539,14.3791084 42.6756539,15.5609305 41.3737296,16.4674177 L24.3576259,28.315173 C22.7281894,29.4496963 19.9415752,29.4496963 18.3121387,28.315173 L1.296035,16.4674177 C-0.00588931702,15.5609305 -0.00588931702,14.3791084 1.296035,13.4726211 L18.3121387,1.62486583 Z M21.7809956,8.12452709 C24.0533999,8.79931854 24.0533999,11.4869851 23.3386283,11.9407903 C23.3221534,11.9523939 23.2332762,12.015556 22.9219731,12.214083 C22.8923404,12.2327858 22.8788875,12.2477184 22.854,12.2655551 L24.2935462,15.7077986 L24.6523391,15.4898168 C24.6576229,15.4864541 24.8554302,15.3564519 25.2457608,15.0998102 C25.2548921,15.123823 25.3046417,15.2552611 25.4960876,15.7708619 C25.5674231,15.9670688 25.3657861,16.3680782 25.2832641,16.4584153 C25.030235,16.73206 24.9224109,17.0579543 25.0067615,17.3006312 C25.0400552,17.39736 25.5829267,19.054731 25.5829267,19.054731 C25.6695873,19.3342158 25.8613711,19.5217232 26.0978455,19.5936163 C26.3343202,19.6655094 26.6113188,19.6177425 26.8864664,19.4396292 L29.748684,17.5189972 C30.3184868,17.1195984 30.6481571,16.3164037 30.4763379,15.7538174 L29.9001727,13.9997176 C29.8138058,13.7512813 29.5662044,13.6633192 29.2812256,13.7690593 C29.1471954,13.8173846 28.7549514,13.799971 28.6884035,13.6170035 L28.4324541,12.9311828 C28.6292036,12.751898 28.7872973,12.5279276 28.8865393,12.2834262 C29.0177956,11.9683026 29.0361907,11.6607193 28.9382556,11.4188195 L28.2252801,9.73806947 C28.2214686,9.72955039 28.2045676,9.71016056 28.1956246,9.69632785 L28.0421436,9.35800265 C27.7161162,8.66346999 26.6301711,8.18474658 25.7244842,7.64580369 C24.8187973,7.1068608 22.5121315,7.53677942 21.7809956,8.12452709 Z M22.1301937,12.7167848 L12.8275067,17.5476984 C12.3444693,17.7429922 12.1294275,18.2682132 12.3408177,18.7361157 L13.0536371,20.4172393 C13.1530243,20.6662724 13.3427899,20.8586088 13.5657361,20.9628714 C13.7886828,21.0671342 14.0409406,21.078566 14.2828464,20.9799924 L23.5805064,16.1612979 L22.1301937,12.7167848 Z" id="Rectangle-2"></path>
        </g>
    </g>
</svg>