<svg xmlns="http://www.w3.org/2000/svg" width="24.5" height="18.662" viewBox="0 0 24.5 18.662">
  <g id="email" transform="translate(0 -61)">
    <g id="Group_669" data-name="Group 669" transform="translate(1.231 61)">
      <g id="Group_668" data-name="Group 668">
        <path id="Path_1174" data-name="Path 1174" d="M46.837,61H26.644a2.128,2.128,0,0,0-.923.216L36.692,72.187l2.459-2.363h0l8.608-8.607A2.128,2.128,0,0,0,46.837,61Z" transform="translate(-25.721 -61)" fill="#fff"/>
      </g>
    </g>
    <g id="Group_671" data-name="Group 671" transform="translate(16.184 62.231)">
      <g id="Group_670" data-name="Group 670">
        <path id="Path_1175" data-name="Path 1175" d="M346.313,86.728l-8.1,8.1,8.1,8.1a2.129,2.129,0,0,0,.216-.923V87.65A2.129,2.129,0,0,0,346.313,86.728Z" transform="translate(-338.213 -86.728)" fill="#fff"/>
      </g>
    </g>
    <g id="Group_673" data-name="Group 673" transform="translate(0 62.231)">
      <g id="Group_672" data-name="Group 672">
        <path id="Path_1176" data-name="Path 1176" d="M.216,86.721A2.128,2.128,0,0,0,0,87.644V102a2.129,2.129,0,0,0,.216.922l8.1-8.1Z" transform="translate(0 -86.721)" fill="#fff"/>
      </g>
    </g>
    <g id="Group_675" data-name="Group 675" transform="translate(1.23 71.346)">
      <g id="Group_674" data-name="Group 674">
        <path id="Path_1177" data-name="Path 1177" d="M39.653,277.211l-2.459,2.364a.718.718,0,0,1-1.015,0l-2.364-2.364-8.1,8.1a2.13,2.13,0,0,0,.923.216H46.83a2.129,2.129,0,0,0,.923-.216Z" transform="translate(-25.714 -277.211)" fill="#fff"/>
      </g>
    </g>
  </g>
</svg>
