<?xml version="1.0" encoding="UTF-8"?>
<svg width="125px" height="91px" viewBox="0 0 125 91" version="1.1" xmlns="http://www.w3.org/2000/svg" xmlns:xlink="http://www.w3.org/1999/xlink">
    <!-- Generator: Sketch 50.2 (55047) - http://www.bohemiancoding.com/sketch -->
    <title>folder</title>
    <desc>Created with Sketch.</desc>
    <defs></defs>
    <g id="UI-Mockup" stroke="none" stroke-width="1" fill="none" fill-rule="evenodd">
        <g id="Artboard" transform="translate(-781.000000, -862.000000)" fill-rule="nonzero">
            <g id="folder" transform="translate(781.000000, 862.000000)">
                <path d="M96.1059766,11.3065855 L50.8796346,11.3065855 L39.5730492,0 L11.3065855,0 C5.09017108,0 0,5.09017108 0,11.3065855 L0,79.1460983 C0,85.3625127 5.09017108,90.4526838 11.3065855,90.4526838 L98.9326229,90.4526838 C103.735714,90.4526838 107.412562,86.7758359 107.412562,81.9727447 L107.412562,22.613171 C107.412562,16.3967566 102.322391,11.3065855 96.1059766,11.3065855 Z" id="Shape" fill="#2B2F3E"></path>
                <path d="M113.475684,18.2664637 L30.9433116,18.2664637 C25.5660606,18.2664637 20.7629694,22.2193534 19.9127679,27.5966043 C10.4709743,67.2784698 4.67472954,86.7758647 2.52403364,86.0887891 C4.62880995,88.9651923 7.9686159,90.4526838 11.6337497,90.4526838 C31.2386742,90.4526838 60.9971136,90.4526838 100.909068,90.4526838 C106.286322,90.4526838 111.08941,86.4997969 111.939614,81.1225432 L124.50623,31.549494 C125.919553,24.769958 120.5423,18.2664637 113.475684,18.2664637 Z" id="Shape" fill="#6B72C7"></path>
            </g>
        </g>
    </g>
</svg>