<?xml version="1.0" encoding="UTF-8"?>
<svg width="45px" height="47px" viewBox="0 0 45 47" version="1.1" xmlns="http://www.w3.org/2000/svg" xmlns:xlink="http://www.w3.org/1999/xlink">
    <!-- Generator: Sketch 54.1 (76490) - https://sketchapp.com -->
    <title>icons/guides</title>
    <desc>Created with Sketch.</desc>
    <g id="icons/guides" stroke="none" stroke-width="1" fill="none" fill-rule="evenodd">
        <g id="Group" transform="translate(5.500000, 0.000000)" fill="#D8D8D8">
            <path d="M24.7060014,40.3750373 L10.5710538,43.9339242 C10.3345747,43.631216 10.1195004,43.3109742 9.92810691,42.9754748 L24.8161191,39.2269818 C24.8068354,39.6172637 24.7694825,40.000596 24.7060014,40.3750373 Z M23.7097406,43.0902908 C22.3222303,45.43086 19.770517,47 16.8523115,47 C15.3449146,47 13.9353063,46.5813171 12.7334329,45.8538977 L23.7097406,43.0902908 Z M24.8184132,36.7619886 L9.06671011,40.7279411 C8.94847863,40.1820078 8.88620985,39.6152249 8.88620985,39.0338983 L8.88620985,36.6440678 L24.8184132,36.6440678 L24.8184132,36.7619886 Z" id="Rectangle-2"></path>
            <path d="M20.9436382,35.3038324 L20.9436382,22.5091158 C20.9436382,22.53224 21.0312739,22.3567672 21.2483647,22.0839483 C21.5142251,21.7498407 21.9012067,21.3532811 22.4453361,20.8482437 C22.5969036,20.7075652 22.7592014,20.5596574 22.9558882,20.3824757 C22.9623535,20.3766515 23.6533334,19.7572243 23.8442671,19.5834948 C24.1801452,19.2778813 24.4387489,19.0333568 24.6623432,18.8064452 C25.3963017,18.0615978 25.7584402,17.544145 25.7584402,16.8523115 C25.7584402,14.9746717 23.1543102,11.5092336 21.1330665,11.5092336 C20.3993898,11.5092336 19.7020429,11.8183383 18.8988233,12.3713942 C18.6234982,12.5609689 18.3470837,12.7714858 18.0057986,13.045881 C17.8784492,13.1482707 17.4718453,13.4799247 17.4276159,13.5157206 C17.2741505,13.6399237 17.153137,13.7356131 17.0483156,13.8150164 C16.8923289,13.5712684 16.7233198,13.300408 16.7390996,13.3246158 C15.9829444,12.1645981 15.1845674,11.5092336 13.940678,11.5092336 C11.9463357,11.5092336 9.46557335,12.8375666 8.08474307,14.481605 C7.29721391,15.4192497 7.58854192,16.4476839 8.44059201,17.60792 C8.70175877,17.9635507 9.02456735,18.3436274 9.45116624,18.8087678 C9.61526139,18.9876882 9.7895417,19.1737806 10.01913,19.4161394 C10.0729988,19.4730045 10.4797081,19.9011112 10.5988832,20.0272202 C10.957771,20.4069891 11.223572,20.6952128 11.468259,20.9729109 C12.1961423,21.7989938 12.6416396,22.437165 12.8187617,22.9203657 C13.3577437,24.3907435 13.3587509,28.6038466 12.7540257,35.3038324 L8.50705962,35.3038324 C7.99307762,32.796062 6.73230431,30.5812659 4.98232333,28.9309511 L5.10040938,28.9309511 C1.95422614,25.8693512 -3.55271368e-15,21.5890484 -3.55271368e-15,16.8523115 C-3.55271368e-15,7.54503688 7.54503688,3.55271368e-15 16.8523115,3.55271368e-15 C26.1595862,3.55271368e-15 33.7046231,7.54503688 33.7046231,16.8523115 C33.7046231,22.0491754 31.3522891,26.6966221 27.6543083,29.7879648 C26.3315804,31.3161843 25.38019,33.2076608 24.9505675,35.3038324 L20.9436382,35.3038324 Z M18.5538077,35.3038324 L15.1534512,35.3038324 C15.7744355,28.3362242 15.7660612,24.0169696 15.0625942,22.097866 C14.7575353,21.2656454 14.1707805,20.4251241 13.2613352,19.3929844 C12.9949013,19.0906056 12.7121458,18.7839971 12.3358254,18.3857813 C10.7501247,16.7078203 10.7224812,16.6776794 10.3668046,16.1933548 C10.2516003,16.0364811 10.1665669,15.9032545 10.1110446,15.7998277 C11.1043112,14.7595755 12.7862491,13.8990641 13.940678,13.8990641 C14.1576547,13.8990641 14.3795678,14.0812261 14.7370537,14.6296453 C14.7812133,14.6973906 14.8265366,14.7690922 14.8850567,14.8633385 C14.9608863,14.9859278 15.0057535,15.0584875 15.0396852,15.1127841 C15.1809876,15.3388928 15.2855832,15.4947242 15.4023325,15.6438031 C15.7868938,16.1348554 16.2228626,16.4450275 16.8523115,16.4450275 C17.3789782,16.4450275 17.793399,16.2315672 18.360669,15.8172643 C18.5263714,15.6962444 18.6998207,15.56054 18.9310678,15.3733864 C18.9814483,15.3326123 19.3838838,15.0043583 19.5032588,14.9083801 C19.8024407,14.6678361 20.0361679,14.4898299 20.2541327,14.3397505 C20.6910668,14.0389 21.0065396,13.8990641 21.1330665,13.8990641 C21.6267252,13.8990641 23.1465461,15.8778175 23.3467597,16.6960553 C23.263448,16.8068438 23.1339215,16.9526488 22.960081,17.1290684 C22.772522,17.3194099 22.5424324,17.5369727 22.2359159,17.8158704 C22.0527354,17.9825452 21.3686831,18.5957622 21.3563597,18.6068635 C21.1515682,18.7913462 20.9809748,18.9468142 20.8195633,19.0966294 C19.2670255,20.537628 18.5538077,21.4339312 18.5538077,22.5091158 L18.5538077,35.3038324 Z" id="Rectangle-3"></path>
        </g>
    </g>
</svg>