<?xml version="1.0" encoding="UTF-8"?>
<svg width="126px" height="94px" viewBox="0 0 126 94" version="1.1" xmlns="http://www.w3.org/2000/svg" xmlns:xlink="http://www.w3.org/1999/xlink">
    <!-- Generator: Sketch 52.3 (67297) - http://www.bohemiancoding.com/sketch -->
    <title>M-orange</title>
    <desc>Created with Sketch.</desc>
    <g id="Page-1" stroke="none" stroke-width="1" fill="none" fill-rule="evenodd">
        <g id="Artboard" transform="translate(-187.000000, -120.000000)" fill="#FF7E00">
            <g id="sidebar">
                <g id="m" transform="translate(187.615173, 119.821949)">
                    <path d="M62.3707321,77.425213 L96.140263,0.7259945 L124.577763,0.7259945 L124.577763,3.8705258 L121.159795,3.8705258 C116.60248,3.8705258 113.617484,4.2464986 112.204716,4.9984554 C110.791949,5.7504123 109.84632,7.1517655 109.367802,9.202557 C108.889284,11.2533485 108.650029,16.1296018 108.650029,23.8314633 L108.650029,69.290448 C108.650029,76.582151 108.832319,81.355866 109.196904,83.611737 C109.561489,85.867607 110.484331,87.542395 111.965459,88.636151 C113.446586,89.729906 116.283472,90.276776 120.476201,90.276776 L124.577763,90.276776 L124.577763,93.421307 L80.280888,93.421307 L80.280888,90.276776 L83.562138,90.276776 C87.481429,90.276776 90.204383,89.775479 91.731084,88.77287 C93.257784,87.77026 94.237592,86.209404 94.670537,84.090252 C95.103482,81.971101 95.319951,77.037882 95.319951,69.290448 L95.319951,10.296307 L58.6109665,93.421307 L55.3980759,93.421307 L18.415654,10.296307 L18.415654,64.573651 C18.415654,72.002073 18.6435163,77.060616 19.0992477,79.749432 C19.5549792,82.438248 20.9677255,84.796622 23.337529,86.824627 C25.7073325,88.852632 29.0341221,90.003337 33.3179977,90.276776 L33.3179977,93.421307 L0.1637009,93.421307 L0.1637009,90.276776 C4.1285644,90.04891 7.352816,88.966564 9.8365524,87.029705 C12.3202888,85.092847 13.8355731,82.711686 14.3824509,79.886151 C14.9293286,77.060616 15.2027634,71.819783 15.2027634,64.163495 L15.2027634,23.8314633 C15.2027634,16.4486138 14.9862942,11.6862917 14.5533493,9.5443539 C14.1204044,7.4024161 13.2089552,5.9213111 11.8189743,5.1009945 C10.4289934,4.2806779 7.3870316,3.8705258 2.6929977,3.8705258 L0.1637009,3.8705258 L0.1637009,0.7259945 L28.3961227,0.7259945 L62.3707321,77.425213 Z" id="M-orange"></path>
                </g>
            </g>
        </g>
    </g>
</svg>