<svg xmlns="http://www.w3.org/2000/svg" xmlns:xlink="http://www.w3.org/1999/xlink" width="41" height="41" viewBox="0 0 41 41">
  <defs>
    <path id="m_logo-a" d="M19.5,24.0390625 L30.1132812,-0.06640625 L39.0507812,-0.06640625 L39.0507812,0.921875 L37.9765625,0.921875 C36.5442637,0.921875 35.606122,1.04003788 35.1621094,1.27636719 C34.7180967,1.51269649 34.4208992,1.95312178 34.2705078,2.59765625 C34.1201164,3.24219072 34.0449219,4.77472748 34.0449219,7.1953125 L34.0449219,21.4824219 C34.0449219,23.7741 34.102213,25.2744105 34.2167969,25.9833984 C34.3313808,26.6923864 34.6214169,27.2187483 35.0869141,27.5625 C35.5524112,27.9062517 36.4440038,28.078125 37.7617188,28.078125 L39.0507812,28.078125 L39.0507812,29.0664062 L25.1289062,29.0664062 L25.1289062,28.078125 L26.1601562,28.078125 C27.3919332,28.078125 28.247719,27.9205745 28.7275391,27.6054688 C29.2073592,27.290363 29.5152988,26.799808 29.6513672,26.1337891 C29.7874356,25.4677701 29.8554687,23.9173299 29.8554687,21.4824219 L29.8554687,2.94140625 L18.3183594,29.0664062 L17.3085938,29.0664062 L5.68554688,2.94140625 L5.68554688,20 C5.68554688,22.3346471 5.75716074,23.9244749 5.90039062,24.7695312 C6.04362051,25.6145876 6.48762648,26.3557911 7.23242188,26.9931641 C7.97721727,27.630537 9.02277973,27.9921871 10.3691406,28.078125 L10.3691406,29.0664062 L-0.05078125,29.0664062 L-0.05078125,28.078125 C1.19531873,28.0065101 2.20865495,27.6663442 2.98925781,27.0576172 C3.76986067,26.4488902 4.24609289,25.7005253 4.41796875,24.8125 C4.58984461,23.9244747 4.67578125,22.2773558 4.67578125,19.8710938 L4.67578125,7.1953125 C4.67578125,4.8749884 4.60774808,3.37825857 4.47167969,2.70507812 C4.3356113,2.03189768 4.04915583,1.56640754 3.61230469,1.30859375 C3.17545354,1.05077996 2.21940842,0.921875 0.744140625,0.921875 L-0.05078125,0.921875 L-0.05078125,-0.06640625 L8.82226562,-0.06640625 L19.5,24.0390625 Z"/>
  </defs>
  <g fill="none" fill-rule="evenodd" transform="translate(1 6)">
    <mask id="m_logo-b" fill="#fff">
      <use xlink:href="#m_logo-a"/>
    </mask>
    <use fill="#FFF" fill-rule="nonzero" xlink:href="#m_logo-a"/>
    <g mask="url(#m_logo-b)">
      <path fill="#000" d="M0 0H43V43H0z" transform="translate(-2 -7)"/>
    </g>
  </g>
</svg>
