<?xml version="1.0" encoding="UTF-8"?>
<svg width="109px" height="19px" viewBox="0 0 109 19" version="1.1" xmlns="http://www.w3.org/2000/svg" xmlns:xlink="http://www.w3.org/1999/xlink">
    <!-- Generator: Sketch 48.2 (47327) - http://www.bohemiancoding.com/sketch -->
    <title>MOMENTVM Copy</title>
    <desc>Created with Sketch.</desc>
    <defs></defs>
    <g id="Symbols" stroke="none" stroke-width="1" fill="none" fill-rule="evenodd">
        <g id="MOMENTVM-Copy" fill="#FFFFFF">
            <path d="M7.88574219,13.0576172 L11.9863281,3.74414062 L15.4394531,3.74414062 L15.4394531,4.12597656 L15.0244141,4.12597656 C14.4710259,4.12597656 14.1085621,4.1716304 13.9370117,4.26293945 C13.7654614,4.3542485 13.6506351,4.52441282 13.5925293,4.7734375 C13.5344235,5.02246218 13.5053711,5.61457866 13.5053711,6.54980469 L13.5053711,12.0698242 C13.5053711,12.9552453 13.5275063,13.5349107 13.5717773,13.8088379 C13.6160484,14.082765 13.7281078,14.2861321 13.907959,14.4189453 C14.0878101,14.5517585 14.4322891,14.6181641 14.9414063,14.6181641 L15.4394531,14.6181641 L15.4394531,15 L10.0605469,15 L10.0605469,14.6181641 L10.4589844,14.6181641 C10.9348982,14.6181641 11.2655427,14.5572923 11.4509277,14.4355469 C11.6363128,14.3138015 11.7552895,14.1242689 11.8078613,13.8669434 C11.8604332,13.6096179 11.8867188,13.0105841 11.8867188,12.0698242 L11.8867188,4.90625 L7.42919922,15 L7.0390625,15 L2.54833984,4.90625 L2.54833984,11.4970703 C2.54833984,12.3990931 2.57600884,13.0133447 2.63134766,13.3398438 C2.68668647,13.6663428 2.85823424,13.9527169 3.14599609,14.1989746 C3.43375795,14.4452324 3.83772526,14.5849608 4.35791016,14.6181641 L4.35791016,15 L0.33203125,15 L0.33203125,14.6181641 C0.81347897,14.5904947 1.20499524,14.4590669 1.5065918,14.223877 C1.80818836,13.988687 1.99218717,13.699546 2.05859375,13.3564453 C2.12500033,13.0133446 2.15820312,12.3769578 2.15820312,11.4472656 L2.15820312,6.54980469 C2.15820312,5.65331583 2.13191758,5.07503385 2.0793457,4.81494141 C2.02677383,4.55484896 1.91609785,4.3750005 1.74731445,4.27539062 C1.57853106,4.17578075 1.20914999,4.12597656 0.639160156,4.12597656 L0.33203125,4.12597656 L0.33203125,3.74414062 L3.76025391,3.74414062 L7.88574219,13.0576172 Z M16.5574929,9.29736328 C16.5574929,7.55972438 17.1385418,6.16520708 18.300657,5.11376953 C19.4627721,4.06233198 20.9126274,3.53662109 22.6502663,3.53662109 C24.4045069,3.53662109 25.8695801,4.05679818 27.04553,5.09716797 C28.2214799,6.13753775 28.809446,7.55695715 28.809446,9.35546875 C28.809446,11.0986415 28.246382,12.5097602 27.120237,13.5888672 C25.9940921,14.6679741 24.5124174,15.2075195 22.6751687,15.2075195 C20.8877248,15.2075195 19.4212682,14.6679741 18.2757546,13.5888672 C17.1302411,12.5097602 16.5574929,11.0792732 16.5574929,9.29736328 Z M18.4583718,9.35546875 C18.4583718,11.1650481 18.8194522,12.5235957 19.5416238,13.4311523 C20.2637953,14.338709 21.3470365,14.7924805 22.7913796,14.7924805 C24.0586386,14.7924805 25.0602561,14.338709 25.7962624,13.4311523 C26.5322687,12.5235957 26.9002663,11.1705819 26.9002663,9.37207031 C26.9002663,7.62336365 26.5378025,6.28280089 25.812864,5.3503418 C25.0879255,4.41788271 24.0365037,3.95166016 22.6585671,3.95166016 C21.3027661,3.95166016 20.2637953,4.40681511 19.5416238,5.31713867 C18.8194522,6.22746223 18.4583718,7.5735588 18.4583718,9.35546875 Z M37.4811967,13.0576172 L41.5817827,3.74414062 L45.0349077,3.74414062 L45.0349077,4.12597656 L44.6198686,4.12597656 C44.0664804,4.12597656 43.7040166,4.1716304 43.5324663,4.26293945 C43.3609159,4.3542485 43.2460896,4.52441282 43.1879838,4.7734375 C43.1298781,5.02246218 43.1008256,5.61457866 43.1008256,6.54980469 L43.1008256,12.0698242 C43.1008256,12.9552453 43.1229608,13.5349107 43.1672319,13.8088379 C43.2115029,14.082765 43.3235624,14.2861321 43.5034135,14.4189453 C43.6832647,14.5517585 44.0277437,14.6181641 44.5368608,14.6181641 L45.0349077,14.6181641 L45.0349077,15 L39.6560014,15 L39.6560014,14.6181641 L40.0544389,14.6181641 C40.5303528,14.6181641 40.8609972,14.5572923 41.0463823,14.4355469 C41.2317673,14.3138015 41.350744,14.1242689 41.4033159,13.8669434 C41.4558877,13.6096179 41.4821733,13.0105841 41.4821733,12.0698242 L41.4821733,4.90625 L37.0246538,15 L36.634517,15 L32.1437944,4.90625 L32.1437944,11.4970703 C32.1437944,12.3990931 32.1714634,13.0133447 32.2268022,13.3398438 C32.282141,13.6663428 32.4536888,13.9527169 32.7414506,14.1989746 C33.0292125,14.4452324 33.4331798,14.5849608 33.9533647,14.6181641 L33.9533647,15 L29.9274858,15 L29.9274858,14.6181641 C30.4089335,14.5904947 30.8004498,14.4590669 31.1020463,14.223877 C31.4036429,13.988687 31.5876417,13.699546 31.6540483,13.3564453 C31.7204549,13.0133446 31.7536577,12.3769578 31.7536577,11.4472656 L31.7536577,6.54980469 C31.7536577,5.65331583 31.7273721,5.07503385 31.6748002,4.81494141 C31.6222284,4.55484896 31.5115524,4.3750005 31.342769,4.27539062 C31.1739856,4.17578075 30.8046045,4.12597656 30.2346147,4.12597656 L29.9274858,4.12597656 L29.9274858,3.74414062 L33.3557085,3.74414062 L37.4811967,13.0576172 Z M54.9849787,11.4970703 L55.3834162,11.4970703 L55.1426935,15 L45.8209162,15 L45.8209162,14.6181641 L46.0533381,14.6181641 C46.6122601,14.6181641 46.9733405,14.5434578 47.13659,14.394043 C47.2998395,14.2446282 47.4035983,14.0550955 47.4478693,13.8254395 C47.4921404,13.5957834 47.5142756,13.0105841 47.5142756,12.0698242 L47.5142756,6.54980469 C47.5142756,5.692053 47.4907569,5.12760552 47.4437189,4.85644531 C47.3966809,4.5852851 47.2887719,4.39575249 47.1199885,4.2878418 C46.9512051,4.1799311 46.5956585,4.12597656 46.0533381,4.12597656 L46.0533381,3.74414062 L54.0967951,3.74414062 L54.3624201,6.54980469 L53.9722834,6.54980469 C53.7951992,5.76399347 53.5779976,5.20646323 53.3206721,4.87719727 C53.0633465,4.5479313 52.7576042,4.34041384 52.4034357,4.25463867 C52.0492673,4.1688635 51.479286,4.12597656 50.6934748,4.12597656 L49.1329279,4.12597656 L49.1329279,8.84912109 L50.3282404,8.84912109 C50.8760947,8.84912109 51.2593103,8.8020838 51.4778986,8.70800781 C51.6964869,8.61393182 51.8403657,8.4714365 51.9095392,8.28051758 C51.9787128,8.08959865 52.013299,7.71745068 52.013299,7.1640625 L52.4034357,7.1640625 L52.4034357,11.015625 L52.013299,11.015625 C52.013299,10.3902964 51.9607279,9.97111109 51.8555842,9.75805664 C51.7504404,9.54500219 51.5968775,9.40665722 51.3948908,9.34301758 C51.1929041,9.27937794 50.851192,9.24755859 50.3697443,9.24755859 L49.1329279,9.24755859 L49.1329279,11.9121094 C49.1329279,13.2457749 49.2187018,14.0301909 49.3902521,14.2653809 C49.5618025,14.5005708 50.0238747,14.6181641 50.7764826,14.6181641 L51.6148615,14.6181641 C52.2069869,14.6181641 52.6939612,14.5420743 53.075799,14.3898926 C53.4576368,14.2377108 53.8214841,13.9250512 54.1673517,13.4519043 C54.5132194,12.9787574 54.7857589,12.3271526 54.9849787,11.4970703 Z M66.2963778,15.2573242 L58.3359286,4.70703125 L58.3359286,12.5180664 C58.3359286,13.1655306 58.367748,13.5916331 58.4313876,13.7963867 C58.4950272,14.0011403 58.6762592,14.1892895 58.9750888,14.3608398 C59.2739184,14.5323902 59.7221561,14.6181641 60.3198153,14.6181641 L60.3198153,15 L56.11962,15 L56.11962,14.6181641 C56.6564066,14.5794269 57.0659077,14.481202 57.3481357,14.3234863 C57.6303636,14.1657707 57.797761,13.9956064 57.8503329,13.8129883 C57.9029048,13.6303702 57.9291903,13.1987339 57.9291903,12.5180664 L57.9291903,6.54980469 C57.9291903,5.68651912 57.8890703,5.10823714 57.808829,4.81494141 C57.7285877,4.52164567 57.6013103,4.33349651 57.4269931,4.25048828 C57.2526758,4.16748005 56.8639264,4.12597656 56.2607333,4.12597656 L56.2607333,3.74414062 L59.5810458,3.74414062 L66.2465732,12.5512695 L66.2465732,5.81933594 C66.2465732,5.32128657 66.1953855,4.97265725 66.0930087,4.7734375 C65.9906319,4.57421775 65.781731,4.41650449 65.4662997,4.30029297 C65.1508684,4.18408145 64.7718032,4.12597656 64.3290927,4.12597656 L64.3290927,3.74414062 L68.4130771,3.74414062 L68.4130771,4.12597656 C67.9371632,4.16471374 67.5622483,4.25602142 67.2883212,4.39990234 C67.014394,4.54378327 66.8400794,4.71671448 66.765372,4.91870117 C66.6906646,5.12068786 66.6533114,5.46239994 66.6533114,5.94384766 L66.6533114,15.2573242 L66.2963778,15.2573242 Z M69.3152965,6.45019531 L68.9334606,6.45019531 L68.991566,3.74414062 L79.9153942,3.74414062 L79.9734996,6.45019531 L79.616566,6.45019531 C79.4892868,5.70865515 79.3149721,5.17326011 79.0936168,4.84399414 C78.8722616,4.51472817 78.6343082,4.31274451 78.3797496,4.23803711 C78.1251911,4.1633297 77.6907879,4.12597656 77.076527,4.12597656 L75.2669567,4.12597656 L75.2669567,12.0698242 C75.2669567,12.9497114 75.2877084,13.5279934 75.3292125,13.8046875 C75.3707166,14.0813816 75.4827761,14.2861321 75.6653942,14.4189453 C75.8480123,14.5517585 76.1911078,14.6181641 76.694691,14.6181641 L77.2425426,14.6181641 L77.2425426,15 L71.6312145,15 L71.6312145,14.6181641 L72.2122692,14.6181641 C72.6937169,14.6181641 73.0271283,14.5572923 73.2125133,14.4355469 C73.3978984,14.3138015 73.516875,14.1242689 73.5694469,13.8669434 C73.6220188,13.6096179 73.6483043,13.0105841 73.6483043,12.0698242 L73.6483043,4.12597656 L71.9798473,4.12597656 C71.2549088,4.12597656 70.7679345,4.16056281 70.5189098,4.22973633 C70.2698851,4.29890985 70.0360821,4.50781076 69.8174938,4.85644531 C69.5989054,5.20507987 69.431508,5.73632456 69.3152965,6.45019531 Z M86.9103871,15.265625 L86.3957386,15.265625 L82.510973,6.31738281 C82.4390325,6.15690024 82.3255897,5.8802103 82.170641,5.48730469 C81.9548196,4.95605203 81.7279338,4.59912201 81.4899769,4.41650391 C81.25202,4.23388581 80.867421,4.13704433 80.3361683,4.12597656 L80.3361683,3.74414062 L85.1838246,3.74414062 L85.1838246,4.12597656 C84.5806314,4.12597656 84.1752807,4.17024695 83.9677601,4.25878906 C83.7602395,4.34733117 83.6564808,4.51611204 83.6564808,4.76513672 C83.6564808,4.92561929 83.7865251,5.30191761 84.0466175,5.89404297 L87.2839222,13.3647461 L89.8820668,7.14746094 C90.3192434,6.10709115 90.5378285,5.4292008 90.5378285,5.11376953 C90.5378285,4.47737312 90.0868239,4.14811209 89.1848011,4.12597656 L89.1848011,3.74414062 L92.6213246,3.74414062 L92.6213246,4.12597656 C92.27269,4.13704433 91.9655642,4.2615548 91.6999379,4.49951172 C91.4343115,4.73746864 91.2046589,5.08609796 91.010973,5.54541016 L90.2556019,7.31347656 L86.9103871,15.265625 Z M100.487899,13.0576172 L104.588485,3.74414062 L108.04161,3.74414062 L108.04161,4.12597656 L107.626571,4.12597656 C107.073183,4.12597656 106.710719,4.1716304 106.539169,4.26293945 C106.367619,4.3542485 106.252792,4.52441282 106.194687,4.7734375 C106.136581,5.02246218 106.107528,5.61457866 106.107528,6.54980469 L106.107528,12.0698242 C106.107528,12.9552453 106.129664,13.5349107 106.173935,13.8088379 C106.218206,14.082765 106.330265,14.2861321 106.510116,14.4189453 C106.689967,14.5517585 107.034446,14.6181641 107.543564,14.6181641 L108.04161,14.6181641 L108.04161,15 L102.662704,15 L102.662704,14.6181641 L103.061142,14.6181641 C103.537056,14.6181641 103.8677,14.5572923 104.053085,14.4355469 C104.23847,14.3138015 104.357447,14.1242689 104.410019,13.8669434 C104.462591,13.6096179 104.488876,13.0105841 104.488876,12.0698242 L104.488876,4.90625 L100.031357,15 L99.6412198,15 L95.1504972,4.90625 L95.1504972,11.4970703 C95.1504972,12.3990931 95.1781661,13.0133447 95.233505,13.3398438 C95.2888438,13.6663428 95.4603915,13.9527169 95.7481534,14.1989746 C96.0359153,14.4452324 96.4398826,14.5849608 96.9600675,14.6181641 L96.9600675,15 L92.9341886,15 L92.9341886,14.6181641 C93.4156363,14.5904947 93.8071525,14.4590669 94.1087491,14.223877 C94.4103457,13.988687 94.5943445,13.699546 94.6607511,13.3564453 C94.7271576,13.0133446 94.7603604,12.3769578 94.7603604,11.4472656 L94.7603604,6.54980469 C94.7603604,5.65331583 94.7340749,5.07503385 94.681503,4.81494141 C94.6289311,4.55484896 94.5182552,4.3750005 94.3494718,4.27539062 C94.1806884,4.17578075 93.8113073,4.12597656 93.2413175,4.12597656 L92.9341886,4.12597656 L92.9341886,3.74414062 L96.3624112,3.74414062 L100.487899,13.0576172 Z"></path>
        </g>
    </g>
</svg>