<?xml version="1.0" encoding="UTF-8"?>
<svg width="99px" height="99px" viewBox="0 0 99 99" version="1.1" xmlns="http://www.w3.org/2000/svg" xmlns:xlink="http://www.w3.org/1999/xlink">
    <!-- Generator: Sketch 53.2 (72643) - https://sketchapp.com -->
    <title>icons/activity</title>
    <desc>Created with Sketch.</desc>
    <g id="icons/activity" stroke="none" stroke-width="1" fill="none" fill-rule="evenodd">
        <path d="M8.25,0 L90.75,0 C95.2867014,0 99,3.7132986 99,8.25 L99,90.75 C99,95.2867014 95.2867014,99 90.75,99 L8.25,99 C3.7132986,99 0,95.2867014 0,90.75 L0,8.25 C0,3.7132986 3.7132986,0 8.25,0 Z M44.423932,21.3584005 C44.368293,21.3566429 44.3126006,21.3577138 44.2570703,21.3616092 C43.5363673,21.4067651 42.929614,21.9171671 42.761726,22.6194958 L35.6732787,52.3948263 L31.0749317,42.049351 C30.8382892,41.5162879 30.3368056,41.1486157 29.7572494,41.0832672 C29.1776931,41.0179187 28.6069274,41.2646883 28.2575237,41.7316711 L23.8228314,47.6456627 L21.3584005,47.6456627 C20.7658923,47.6372832 20.2147709,47.9485828 19.9160715,48.4603589 C19.617372,48.972135 19.617372,49.6050981 19.9160715,50.1168743 C20.2147709,50.6286504 20.7658923,50.93995 21.3584005,50.9315705 L24.6443083,50.9315705 C25.1619985,50.9317971 25.6495221,50.688035 25.9599546,50.2737465 L29.2073564,45.9417404 L34.6432238,58.170836 C34.9292836,58.8146936 35.593983,59.2045218 36.295556,59.1398841 C36.9971291,59.0752465 37.579412,58.5705307 37.7430145,57.8852447 L43.9008828,32.0151383 L49.3014513,72.508175 C49.4047521,73.2819998 50.0382864,73.8762996 50.8171277,73.9299861 C51.5959689,73.9836726 52.3050554,73.4819213 52.513556,72.7295893 L59.2875321,48.3419926 L62.5156785,58.0232265 C62.7341628,58.6768421 63.3373113,59.1246628 64.0261842,59.1447342 C64.7150571,59.1648056 65.3432562,58.7528622 65.5994257,58.1130764 L68.474595,50.9315705 L72.7360067,50.9315705 C73.321939,51.9464392 74.4040124,52.5724521 75.5758788,52.5745244 C77.3906355,52.5745244 78.8617865,51.1033733 78.8617865,49.2886166 C78.8617865,47.4738598 77.3906355,46.0027088 75.5758788,46.0027088 C74.4028656,46.0036368 73.3193044,46.6298029 72.732798,47.6456627 L67.3611093,47.6456627 C66.6896366,47.6462866 66.0861067,48.0554163 65.8368852,48.6789263 L64.2163937,52.7285513 L60.705863,42.1969606 C60.477022,41.5118115 59.8275517,41.0564746 59.1054316,41.0749147 C58.3833115,41.0933549 57.7579277,41.5812468 57.5643544,42.2771827 L51.4995446,64.1104988 L45.9898741,22.7831504 C45.884174,21.9904321 45.2230826,21.3889476 44.423932,21.3584005 Z" id="Shape" fill="#282828" fill-rule="nonzero"></path>
    </g>
</svg>