<?xml version="1.0" encoding="UTF-8"?>
<svg width="45px" height="47px" viewBox="0 0 45 47" version="1.1" xmlns="http://www.w3.org/2000/svg" xmlns:xlink="http://www.w3.org/1999/xlink">
    <!-- Generator: Sketch 52.3 (67297) - http://www.bohemiancoding.com/sketch -->
    <title>icons/pages</title>
    <desc>Created with Sketch.</desc>
    <g id="icons/pages" stroke="none" stroke-width="1" fill="none" fill-rule="evenodd">
        <path d="M41.8566663,21.8743148 L43.2570065,22.8493258 C44.6167941,23.7961013 44.6167941,25.0304489 43.2570065,25.9772245 L25.4846315,38.3515467 C23.7827756,39.5364931 20.8723119,39.5364931 19.170456,38.3515467 L1.398081,25.9772245 C0.03829338,25.0304489 0.03829338,23.7961013 1.398081,22.8493258 L2.79842123,21.8743148 L17.4562423,32.0800752 C20.1883433,33.9823476 24.4667442,33.9823476 27.1988452,32.0800752 L41.8566663,21.8743148 Z M42.6752979,30.0378055 L43.2570065,30.4428301 C44.6167941,31.3896057 44.6167941,32.6239533 43.2570065,33.5707288 L25.4846315,45.945051 C23.7827756,47.1299975 20.8723119,47.1299975 19.170456,45.945051 L1.398081,33.5707288 C0.03829338,32.6239533 0.03829338,31.3896057 1.398081,30.4428301 L1.9797896,30.0378055 L17.4562423,40.8135522 C20.1883433,42.7158246 24.4667442,42.7158246 27.1988452,40.8135522 L42.6752979,30.0378055 Z M19.170456,1.74152653 C20.8723119,0.55658009 23.7827756,0.55658009 25.4846315,1.74152653 L43.2570065,14.1158487 C44.6167941,15.0626243 44.6167941,16.2969719 43.2570065,17.2437474 L25.4846315,29.6180696 C23.7827756,30.8030161 20.8723119,30.8030161 19.170456,29.6180696 L1.398081,17.2437474 C0.03829338,16.2969719 0.03829338,15.0626243 1.398081,14.1158487 L19.170456,1.74152653 Z" id="Rectangle-2" fill="#CDCDCD" fill-rule="nonzero"></path>
    </g>
</svg>