<?xml version="1.0" encoding="UTF-8"?>
<svg width="34px" height="33px" viewBox="0 0 34 33" version="1.1" xmlns="http://www.w3.org/2000/svg" xmlns:xlink="http://www.w3.org/1999/xlink">
    <!-- Generator: Sketch 52.3 (67297) - http://www.bohemiancoding.com/sketch -->
    <title>search-icon</title>
    <desc>Created with Sketch.</desc>
    <g id="Page-1" stroke="none" stroke-width="1" fill="none" fill-rule="evenodd">
        <g id="Main" transform="translate(-627.000000, -47.000000)" fill="#434343" fill-rule="nonzero">
            <g id="search" transform="translate(604.000000, 35.000000)">
                <path d="M36.2013142,35.4317283 L27.361405,43.6750769 C26.5085164,44.4704084 25.17237,44.4237492 24.3770386,43.5708606 C23.5817071,42.717972 23.6283663,41.3818256 24.4812549,40.5864941 L33.1666419,32.4872397 C31.6127463,30.3763262 30.6945944,27.7685588 30.6945944,24.9463455 C30.6945944,17.9139387 36.3954865,12.2130465 43.4278934,12.2130465 C50.4603002,12.2130465 56.1611923,17.9139387 56.1611923,24.9463455 C56.1611923,31.9787523 50.4603002,37.6796444 43.4278934,37.6796444 C40.7441712,37.6796444 38.2543648,36.8493924 36.2013142,35.4317283 Z M43.4278934,33.240474 C48.0086141,33.240474 51.7220219,29.5270662 51.7220219,24.9463455 C51.7220219,20.3656248 48.0086141,16.6522169 43.4278934,16.6522169 C38.8471726,16.6522169 35.1337648,20.3656248 35.1337648,24.9463455 C35.1337648,29.5270662 38.8471726,33.240474 43.4278934,33.240474 Z" id="search-icon"></path>
            </g>
        </g>
    </g>
</svg>