<?xml version="1.0" encoding="UTF-8"?>
<svg width="45px" height="47px" viewBox="0 0 45 47" version="1.1" xmlns="http://www.w3.org/2000/svg" xmlns:xlink="http://www.w3.org/1999/xlink">
    <!-- Generator: Sketch 52.3 (67297) - http://www.bohemiancoding.com/sketch -->
    <title>icons/settings</title>
    <desc>Created with Sketch.</desc>
    <g id="icons/settings" stroke="none" stroke-width="1" fill="none" fill-rule="evenodd">
        <g id="gear-copy" transform="translate(0.500000, 0.456884)" fill="#CDCDCD" fill-rule="nonzero">
            <path d="M38.3200117,25.4297561 C38.4846067,24.7582061 38.4846067,23.9154777 38.4846067,23.0727493 C38.4846067,22.2300209 38.4846067,21.5584725 38.3200117,20.7157441 L43.0340237,17.3448305 C43.5409771,17.002472 43.7121555,16.330922 43.3763822,15.8239686 L38.8203817,8.07481795 C38.4846067,7.56786288 37.9776533,7.39668451 37.4772833,7.56786288 L32.2497328,10.0960481 C31.0712293,9.08214133 29.7215475,8.41059129 28.2072708,7.73245953 L27.7003157,2.00453903 C27.7003157,1.49758564 27.1933623,0.990632253 26.6864089,0.990632253 L17.7521714,0.990632253 C17.2518014,0.990632253 16.7448464,1.49758564 16.7448464,2.00453903 L16.0667146,7.9036379 C14.5524362,8.41059129 13.3739327,9.2533197 12.0242509,10.2606448 L6.79670211,7.9036379 C6.29633212,7.73245953 5.61819868,7.9036379 5.45360371,8.41059129 L0.897603241,16.1597436 C0.561828219,16.666697 0.733006584,17.3448305 1.23996166,17.6806038 L5.9539737,21.0515174 C5.78937704,21.7230675 5.78937704,22.5657959 5.78937704,23.4085243 C5.78937704,24.2512527 5.78937704,24.9293861 5.9539737,25.7721146 L1.23996166,29.1430282 C0.733006584,29.4788015 0.733006584,30.1503516 0.897603241,30.657305 L5.45360371,38.4130407 C5.78937704,38.9134107 6.29633212,39.0845891 6.79670211,38.9134107 L12.0242509,36.5564038 C13.2027544,37.5703123 14.5524362,38.2418607 16.0667146,38.9134107 L16.573668,44.6479129 C16.573668,45.154868 17.0806214,45.655238 17.5875748,45.655238 L26.521814,45.655238 C27.022184,45.655238 27.5291373,45.154868 27.5291373,44.6479129 L28.0360907,38.9134107 C29.5503692,38.4130407 30.735456,37.5703123 32.0785544,36.5564038 L37.3061032,38.9134107 C37.8130566,39.0845891 38.4846067,38.9134107 38.655785,38.4130407 L43.2052021,30.657305 C43.5409771,30.1503516 43.3763822,29.4788015 42.8694271,29.1430282 L38.3200117,25.4297561 Z M22.1369919,31.5000334 C17.4163964,31.5000334 13.7097078,27.7933447 13.7097078,23.0727493 C13.7097078,18.3521538 17.4163964,14.6454652 22.1369919,14.6454652 C26.8575873,14.6454652 30.564276,18.3521538 30.564276,23.0727493 C30.564276,27.7933447 26.8575873,31.5000334 22.1369919,31.5000334 Z" id="Shape"></path>
        </g>
    </g>
</svg>