<?xml version="1.0" encoding="UTF-8"?>
<svg width="99px" height="99px" viewBox="0 0 99 99" version="1.1" xmlns="http://www.w3.org/2000/svg" xmlns:xlink="http://www.w3.org/1999/xlink">
    <!-- Generator: Sketch 53.2 (72643) - https://sketchapp.com -->
    <title>icons/hammer</title>
    <desc>Created with Sketch.</desc>
    <g id="icons/hammer" stroke="none" stroke-width="1" fill="none" fill-rule="evenodd">
        <path d="M8.25,0 L90.75,0 C95.2867014,0 99,3.7132986 99,8.25 L99,90.75 C99,95.2867014 95.2867014,99 90.75,99 L8.25,99 C3.7132986,99 0,95.2867014 0,90.75 L0,8.25 C0,3.7132986 3.7132986,0 8.25,0 Z M34.4174104,17.5 C33.7594208,17.5 33.1612475,17.9894147 33.0252995,18.6310901 C32.8893515,19.2782045 33.2482544,19.9307565 33.8518654,20.1972149 C33.9062454,20.2189666 39.2245434,22.6170949 45.4237874,29.1154255 C48.2025716,32.0301577 51.128179,35.891091 49.1650854,37.8161187 C49.121582,37.8650598 48.8877505,38.1315195 48.0339953,38.9907123 C47.952426,39.0722816 47.9252367,39.1320993 47.8599815,39.2082296 L47.816478,39.2517331 L58.4748272,49.9100823 L59.4754069,48.953006 C59.4971587,48.9312543 59.5025962,48.8877508 59.5189104,48.8659991 L61.0850352,47.2998743 C61.155728,47.3705671 61.5418216,47.7566607 63.0426912,49.2575303 C63.6082362,49.8230754 63.4722882,51.2206239 63.303712,51.563214 C62.7816704,52.6072972 62.8795539,53.7057604 63.5647328,54.3909393 C63.8366301,54.6628367 68.3936175,59.2198241 68.3936175,59.2198241 C69.144053,59.9702596 70.1446327,60.3509142 71.1343359,60.3509142 C72.1240404,60.3509142 73.0811167,59.9702596 73.8315508,59.2198241 L81.5316643,51.563214 C83.0379715,50.0623444 83.0325339,47.5880844 81.5316643,46.0817773 L76.7027795,41.2528925 C76.0012865,40.5513995 74.9463267,40.4045749 74.0490681,40.8613613 C73.62491,41.0734411 72.1403532,41.2148267 71.612874,40.6873475 L69.6117146,38.686188 C70.0685009,38.0390736 70.3132076,37.2723254 70.30777,36.4675113 C70.3132076,35.4288657 69.9108012,34.4554766 69.1766799,33.7267929 L63.9562639,28.5063769 C63.9290746,28.4791876 63.8366301,28.41937 63.7822501,28.3758665 L62.6946634,27.2882799 C60.421608,25.0152245 58.3171275,22.8672405 57.7787717,22.3288847 C53.1674043,17.7120797 36.3206878,17.5054376 34.4174104,17.5 Z M45.858822,41.2093891 L18.6256522,68.4425589 C17.1247826,69.9434285 17.1247826,72.374185 18.6256522,73.8804922 L23.8460681,79.1009081 C24.5965036,79.8513436 25.5970833,80.2319982 26.5867865,80.2319982 C27.5764911,80.2319982 28.5335673,79.8513436 29.2840014,79.1009081 L56.5171712,51.9112417 L45.858822,41.2093891 Z" id="Shape" fill="#676767" fill-rule="nonzero"></path>
    </g>
</svg>