<?xml version="1.0" encoding="UTF-8"?>
<svg width="30px" height="25px" viewBox="0 0 30 25" version="1.1" xmlns="http://www.w3.org/2000/svg" xmlns:xlink="http://www.w3.org/1999/xlink">
    <!-- Generator: Sketch 55.2 (78181) - https://sketchapp.com -->
    <title>users</title>
    <desc>Created with Sketch.</desc>
    <g id="users" stroke="none" stroke-width="1" fill="none" fill-rule="evenodd">
        <g id="Group" fill="#CDCDCD" fill-rule="nonzero">
            <path d="M19.0149319,12.6801709 C19.9589789,11.7027954 20.5566825,10.3887234 20.6103357,8.93566176 L23.9279412,8.93566176 C26.9779412,8.93566176 29.4595588,11.4172794 29.4595588,14.4672794 L29.4595588,18.9522059 L29.4286765,18.9522059 L29.1400735,19.0985294 C29.0045865,19.1664555 26.9613578,20.1713843 23.4136045,20.3137918 L23.4136045,18.9283088 C23.41463,16.0882761 21.6086895,13.6088272 19.0149319,12.6801709 L19.0149319,12.6801709 Z" id="Path"></path>
            <path d="M6.47867649,20.2846885 C4.68502789,20.1742121 2.62490608,19.8375033 0.320220588,19.1180147 L0.0113970588,19.0205882 L-1.77635684e-14,18.9514706 L-1.77635684e-14,14.4672794 C-1.77635684e-14,11.4172794 2.48161765,8.93566176 5.53198529,8.93566176 L9.2211706,8.93566176 C9.27515239,10.3970285 9.87934729,11.7177287 10.8326771,12.6967788 C8.26226117,13.6385348 6.47867647,16.1060318 6.47867647,18.9283088 L6.47867647,20.2846885 L6.47867649,20.2846885 Z" id="Path"></path>
            <path d="M17.8071072,3.81005553 C18.0602455,1.66553848 19.8817901,0.000688348156 22.0944853,-3.55271368e-14 C24.4808824,-3.55271368e-14 26.4150735,1.93419118 26.4150735,4.32058824 C26.4150735,6.70661765 24.4808824,8.64080882 22.0944853,8.64080882 C21.5694919,8.64080882 21.06845,8.54452814 20.6037397,8.37215556 C20.4860746,6.42725818 19.3929092,4.74560361 17.8071072,3.81005553 L17.8071072,3.81005553 Z" id="Path"></path>
            <path d="M11.676164,4.03290112 C10.3221634,4.97019342 9.39383041,6.47888249 9.2398534,8.21027997 C8.67296236,8.48552331 8.03798718,8.64154412 7.36580882,8.64154412 C4.97904412,8.64154412 3.04522059,6.70698529 3.04522059,4.32169118 C3.04522059,1.93529412 4.97904412,0.00110294118 7.36580882,0.00110294118 C9.65410341,0.00110294118 11.5275762,1.78118241 11.676164,4.03290112 L11.676164,4.03290112 Z" id="Path"></path>
            <path d="M17.9799177,13.5270712 C20.4552087,14.0767755 22.3116158,16.2899344 22.3106625,18.9283088 L22.3106625,23.4125 L22.2797794,23.4125 L21.9911765,23.5584559 C21.8459559,23.6323529 19.4893382,24.7915441 15.4235294,24.7915441 C13.3419118,24.7915441 10.8128676,24.4882353 7.90183824,23.5786765 L7.59301471,23.4819853 L7.58161765,23.4117647 L7.58161765,18.9283088 C7.58161765,16.3061736 9.41536992,14.1040356 11.867826,13.5374103 C12.7492785,14.096454 13.7947117,14.4201631 14.9157513,14.4201631 C16.0436839,14.4201631 17.0950776,14.0924609 17.9799177,13.5270712 L17.9799177,13.5270712 Z" id="Path"></path>
            <path d="M14.9470588,13.1014706 C17.3334559,13.1014706 19.2676471,11.1669118 19.2676471,8.78088235 C19.2676471,6.39485294 17.3330882,4.46066176 14.9470588,4.46066176 C12.5610294,4.46066176 10.6257353,6.39522059 10.6257353,8.78125 C10.6257353,11.1672794 12.5610294,13.1014706 14.9470588,13.1014706 Z" id="Path"></path>
        </g>
    </g>
</svg>