<?xml version="1.0" encoding="UTF-8"?>
<svg width="200px" height="150px" viewBox="0 0 200 150" version="1.1" xmlns="http://www.w3.org/2000/svg" xmlns:xlink="http://www.w3.org/1999/xlink">
    <!-- Generator: Sketch 57.1 (83088) - https://sketch.com -->
    <title>module-placeholder</title>
    <desc>Created with Sketch.</desc>
    <g id="module-placeholder" stroke="none" stroke-width="1" fill="none" fill-rule="evenodd">
        <path d="M187,1.42108547e-14 C194.179702,1.42108547e-14 200,5.82029825 200,13 L200,107.074 L169.518388,75 L97.4969509,150 L93.3589509,150 L119.308269,108.897004 L48.9852389,39.9957214 L-4.91305652e-05,83.623 L-4.91305652e-05,13 C-4.91305652e-05,5.82029825 5.82029825,1.42108547e-14 13,1.42108547e-14 L187,1.42108547e-14 Z M139.560412,16 C128.20521,16 119,25.2052102 119,36.5604124 C119,47.9156147 128.20521,57.1208249 139.560412,57.1208249 C150.915615,57.1208249 160.120825,47.9156147 160.120825,36.5604124 C160.120825,25.2052102 150.915615,16 139.560412,16 Z" id="Path-3" fill="#C1C1C1"></path>
    </g>
</svg>